<svg xmlns="http://www.w3.org/2000/svg" xml:space="preserve" width="800" height="800" viewBox="0 0 503.606 503.606"><path d="M503.604 180.459C503.604 80.793 422.812 0 323.145 0c-86.995 0-160.78 62.033-176.971 146.166C62.037 162.364.001 236.15.001 323.147c0 99.666 80.793 180.459 180.459 180.459 86.988 0 160.78-62.043 176.972-146.176 84.131-16.193 146.172-89.984 146.172-176.971zM358.897 296.698c-11.531-78.477-73.513-140.458-151.991-151.996 15.486-50.358 62.32-85.948 116.239-85.948 67.103 0 121.705 54.602 121.705 121.705 0 53.917-35.589 100.747-85.953 116.239zm-214.188-89.792c11.533 78.476 73.516 140.46 151.99 151.99-15.486 50.364-62.319 85.955-116.239 85.955-67.103 0-121.705-54.602-121.705-121.705 0-53.92 35.593-100.755 85.954-116.24zm35.751 279.913c-90.395 0-163.672-73.277-163.672-163.672 0-76.884 53.438-142.411 126.784-159.288-.021.203-.035.401-.055.603a176.124 176.124 0 0 0-.291 3.209l-.075.974a164.497 164.497 0 0 0-.204 3.079c-.017.301-.035.604-.05.904a157.609 157.609 0 0 0-.135 3.336c-.005.182-.014.365-.019.547a148.852 148.852 0 0 0-.057 3.947c0 1.515.027 3.046.075 4.598l.005.14c.046 1.433.111 2.89.197 4.377.006.114.008.222.015.337-59.008 16.591-101.01 70.715-101.01 133.236 0 76.374 62.117 138.492 138.492 138.492 64.988 0 120.901-45.381 135.022-108.076 2.286-10.153 3.47-20.277 3.47-30.415 0-2.354-.061-4.712-.182-7.074-.028-.554-.07-1.106-.105-1.659-.039-.617-.071-1.233-.117-1.85-.015-.191-.035-.381-.05-.572-.078-.981-.161-1.962-.259-2.944-6.384-62.792-54.838-113.286-116.657-122.785-.008-.166-.012-.333-.019-.499a123.198 123.198 0 0 1-.119-5.307 114.687 114.687 0 0 1 .132-5.315c.063-1.353.146-2.707.256-4.061.01-.129.017-.257.028-.386.122-1.439.276-2.879.451-4.319.045-.367.094-.735.142-1.103.153-1.172.323-2.345.511-3.518.035-.219.067-.438.103-.657 74.77 10.336 133.366 71.149 140.295 146.956.268 2.927.465 5.649.593 8.251.114 2.353.174 4.619.174 6.841 0 8.101-.756 16.447-2.23 25.728l-.004.044c-12.525 78.997-80.728 137.901-161.435 137.901zm119.484-186.877c-48.531-9.41-86.878-47.755-96.283-96.28 48.528 9.404 86.878 47.753 96.283 96.28zm60.088 39.796c.014-.133.023-.262.036-.394a179.4 179.4 0 0 0 .382-4.343 170.602 170.602 0 0 0 .258-4.02c.057-1.118.102-2.231.135-3.339.005-.182.014-.365.019-.547.035-1.32.057-2.636.057-3.947a148.711 148.711 0 0 0-.08-4.741 171.218 171.218 0 0 0-.197-4.384c-.006-.111-.008-.216-.015-.328 59.01-16.598 101.01-70.716 101.01-133.235 0-76.374-62.117-138.492-138.492-138.492-64.986 0-120.9 45.38-135.022 108.068a147.555 147.555 0 0 0-1.206 5.981 140.305 140.305 0 0 0-1.384 9.217 133.342 133.342 0 0 0-.88 15.227c0 4.738.239 9.446.715 14.113 6.383 62.775 54.833 113.262 116.653 122.769.02.419.032.837.048 1.255.056 1.512.092 3.029.092 4.552a113.773 113.773 0 0 1-.129 5.257 116.493 116.493 0 0 1-.273 4.326l-.007.092a120.75 120.75 0 0 1-.474 4.534c-.03.243-.063.486-.094.729a123.027 123.027 0 0 1-.593 4.081l-.052.331c-74.767-10.329-133.365-71.147-140.295-146.956a197.313 197.313 0 0 1-.6-8.388c-.11-2.302-.168-4.522-.168-6.696 0-6.11.431-12.364 1.275-19.076.274-2.17.591-4.386.951-6.661 12.506-79.018 80.712-137.935 161.442-137.935 90.395 0 163.672 73.277 163.672 163.672.002 76.875-53.442 142.405-126.784 159.278z"/></svg>
