<svg xmlns="http://www.w3.org/2000/svg" xml:space="preserve" width="800" height="800" viewBox="0 0 503.607 503.607"><path d="M495.212 201.443h-8.392V41.967c0-13.91-11.27-25.18-25.18-25.18H302.164V8.393A8.393 8.393 0 0 0 293.771 0h-83.934a8.393 8.393 0 0 0-8.393 8.393v8.393H41.968c-13.91 0-25.18 11.27-25.18 25.18v159.48H8.395a8.393 8.393 0 0 0-8.393 8.393v83.934a8.393 8.393 0 0 0 8.393 8.393h8.389v159.471c0 13.908 11.276 25.18 25.18 25.18h159.479v8.393a8.393 8.393 0 0 0 8.393 8.393h83.934a8.393 8.393 0 0 0 8.393-8.393v-8.39H461.64c13.908 0 25.18-11.276 25.18-25.18V302.164h8.392a8.393 8.393 0 0 0 8.393-8.393v-83.934a8.393 8.393 0 0 0-8.393-8.394zm-339.773 72.365a88.535 88.535 0 0 1-1.261-1.512l-.28-.34c-14.817-18.268-21.375-40.337-19.001-61.165v-.007c.839-7.353 2.732-14.137 5.545-20.211 7.473-15.656 21.395-27.258 40.424-30.306l.139-.021a60.73 60.73 0 0 1 2.184-.303c.246-.029.495-.053.743-.08a64.985 64.985 0 0 1 1.747-.171c.455-.036.917-.061 1.377-.087.415-.025.827-.055 1.246-.072a68.9 68.9 0 0 1 2.741-.057l.081.001c5.636.007 11.051.791 16.444 2.305h.001l.006.002c15.747 4.406 27.848 15.315 34.951 30.892l.236.525c.415.932.817 1.876 1.197 2.84l.031.075c1.394 3.552 4.604 5.327 7.814 5.327s6.42-1.775 7.814-5.327a69.459 69.459 0 0 1 1.441-3.394c7.101-15.602 19.21-26.528 34.974-30.938l.004-.001.003-.001c5.419-1.521 10.859-2.306 16.524-2.306h.01c.919 0 1.827.021 2.729.057.43.017.852.049 1.277.074.449.026.899.05 1.343.085.599.048 1.19.11 1.78.174.235.025.472.048.706.076.747.09 1.488.192 2.22.308l.097.015c19.073 3.05 33.017 14.692 40.481 30.398 2.788 6.045 4.666 12.793 5.502 20.102l.001.022c2.377 20.858-4.196 42.95-19.048 61.227l-.125.152a94.13 94.13 0 0 1-1.421 1.702l-.074.085a95.95 95.95 0 0 1-1.504 1.713c-2.332 2.596-6.206 6.748-11.469 12.303-.012.012-.025.022-.036.034-10.869 11.476-26.856 28.076-47.264 49.123-.007.008-.016.013-.023.021a18632.623 18632.623 0 0 1-35.942 36.948 18632.623 18632.623 0 0 1-35.942-36.948l-.024-.021c-19.259-19.853-36.1-37.344-47.268-49.128-.026-.027-.054-.05-.08-.077-5.285-5.589-9.116-9.695-11.423-12.254-.354-.393-.697-.791-1.043-1.188-.195-.224-.393-.446-.585-.671zm331.379 11.569H360.357c.072-.083.137-.169.209-.252 17.683-20.481 25.747-44.485 25.544-66.896h100.708v67.148zM461.64 33.574a8.388 8.388 0 0 1 8.393 8.393v8.393h-75.541a8.393 8.393 0 0 0-8.393 8.393 8.393 8.393 0 0 0 8.393 8.393h75.541v16.787h-41.967a8.393 8.393 0 1 0 0 16.786h41.967V201.44h-85.668c-6.495-31.833-30.74-57.132-68.163-58.675-.057-.002-.112-.007-.169-.01a89.609 89.609 0 0 0-3.457-.07h-.013c-3.562 0-7.028.227-10.399.656V33.574H461.64zM285.377 16.787V147.488c-13.854 5.259-25.299 14.655-33.574 27.281-8.275-12.628-19.718-22.024-33.572-27.282V25.18l-.001-.017v-8.377h67.147zM33.575 41.967a8.388 8.388 0 0 1 8.393-8.393h159.475v109.771a82.331 82.331 0 0 0-10.39-.656h-.011c-1.17 0-2.327.025-3.472.07-.043.002-.085.006-.128.007-37.446 1.526-61.705 26.832-68.203 58.677H33.575V41.967zM16.788 218.234h100.707c-.201 22.393 7.85 46.378 25.506 66.848.084.098.161.198.246.296H25.177c-.028 0-.055.004-.082.004h-8.307v-67.148zm25.176 251.799a8.394 8.394 0 0 1-8.393-8.393v-8.393h75.544a8.393 8.393 0 0 0 8.393-8.393 8.393 8.393 0 0 0-8.393-8.393H33.571v-16.787h41.971a8.393 8.393 0 1 0 0-16.786H33.571v-100.72h125.292c10.034 10.555 24.022 25.081 40.996 42.595l1.581 1.63v123.639H41.964zm243.413 16.787H218.23V363.684c12.594 12.952 24.103 24.753 27.587 28.298a8.364 8.364 0 0 0 6.15 2.502 8.359 8.359 0 0 0 5.82-2.499c.975-.991 2.892-2.951 5.456-5.578 5.378-5.508 13.498-13.842 22.134-22.724V486.82zm184.656-25.177a8.394 8.394 0 0 1-8.393 8.393H302.164v-123.64l1.582-1.632c16.974-17.515 30.963-32.041 40.997-42.596h125.29v159.475z"/></svg>
