<svg xmlns="http://www.w3.org/2000/svg" xml:space="preserve" width="800" height="800" viewBox="0 0 503.699 503.699"><path d="M260.948 212.534a8.394 8.394 0 0 0 15.35-6.796c-7.914-17.873-23.539-29.429-47.72-29.429a8.393 8.393 0 1 0 0 16.786c17.11.001 27.003 7.316 32.37 19.439z"/><path d="M395.363.046c-41.41 0-74.171 20.637-93.16 55.356C283.207 20.683 250.446.046 209.037.046c-75.031 0-119.666 67.977-105.834 144.045-5.311-.892-10.851-1.357-16.605-1.357-85.178 0-115.567 101.415-54.474 168.838 7.71 8.511 23.525 24.496 59.328 60.239 25.412 25.369 33.703 33.66 41.987 42.05l-7.25 29.001c-1.324 5.297 2.682 10.429 8.143 10.429h16.787v41.967a8.393 8.393 0 1 0 16.786 0v-41.967h16.787c5.461 0 9.467-5.132 8.143-10.429l-7.25-29.001c8.281-8.387 16.549-16.655 41.76-41.824a13287.051 13287.051 0 0 0 26.262-26.276c7.224 8.163 17.283 19.827 22.588 25.865l-7.317 29.269c-1.324 5.297 2.682 10.429 8.143 10.429h16.787v83.934a8.393 8.393 0 0 0 8.393 8.393 8.393 8.393 0 0 0 8.393-8.393v-83.934h16.787c5.461 0 9.467-5.132 8.143-10.429l-7.287-29.149c39.157-42.085 116.37-127.063 135.154-148.954C539.942 133.588 502.046.046 395.363.046zM145.082 436.505l4.197-16.787h20.467l4.197 16.787h-28.861zm70.629-76.573c-26.342 26.297-34.301 34.258-42.925 43h-26.549c-8.624-8.741-16.583-16.702-42.699-42.774-35.676-35.617-51.554-51.664-58.974-59.856-52.11-57.509-27.158-140.78 42.033-140.78 8.592 0 16.539 1.21 23.782 3.522.423.234.86.445 1.325.605 17.262 5.934 30.396 18.254 38.291 35.457.126.276.253.551.376.829a82.33 82.33 0 0 1 1.175 2.778c.052.129.108.254.159.384 1.399 3.54 4.604 5.309 7.808 5.308 3.204.001 6.409-1.769 7.807-5.308 8.056-20.384 22.668-34.45 42.423-40.392 6.945-2.089 14.521-3.182 22.679-3.183 39.277.001 64.29 26.838 69.054 60.56 3.626 25.682-4.488 55.357-27.017 80.219l-.354.388c-4.105 4.42-24.506 25.241-26.234 27.029l-.022.025c-8.362 8.426-18.881 18.954-32.138 32.189zm72.059 34.606 4.197-16.787h20.467l4.197 16.787H287.77zm27.57-33.574h-26.17c-5.097-5.794-16.063-18.522-23.712-27.142 10.542-10.667 17.008-17.374 21.175-21.957l.27-.292c24.214-26.723 34.043-58.783 31.798-87.755-3.417-44.125-34.857-81.084-86.275-81.084h-.005c-8.843 0-17.184 1.086-24.954 3.164-.155.041-.313.078-.468.12-.558.153-1.108.319-1.661.482-.317.094-.638.18-.953.277-.361.111-.716.234-1.074.349-.5.161-1.002.317-1.497.487-.16.055-.316.116-.476.172-.687.24-1.372.483-2.048.739l-.028.011c-16.634 6.315-30.179 17.592-39.75 32.866-9.249-14.761-22.214-25.78-38.086-32.205-16.889-69.887 21.548-132.365 87.611-132.365 40.558 0 70.814 22.976 85.306 61.696 2.721 7.269 13.003 7.268 15.722-.001 14.483-38.718 44.738-61.695 85.297-61.695 90.581 0 123.401 115.656 55.289 195.028-18.698 21.793-96.494 107.406-135.311 149.105zM484.398 371.816a3.482 3.482 0 0 1 0-4.917c7.911-7.911 7.911-20.746 0-28.657l-2.342-2.342a3.479 3.479 0 0 1-.649-4.023l4.563-9.127a8.393 8.393 0 0 0-3.754-11.261 8.393 8.393 0 0 0-11.261 3.754l-4.566 9.132a20.269 20.269 0 0 0 3.797 23.395l2.342 2.342a3.482 3.482 0 0 1 0 4.917c-7.911 7.911-7.911 20.746 0 28.657l2.342 2.342a3.479 3.479 0 0 1 .649 4.023l-4.563 9.127a8.393 8.393 0 0 0 3.754 11.261 8.393 8.393 0 0 0 11.261-3.754l4.566-9.132a20.269 20.269 0 0 0-3.797-23.395l-2.342-2.342z"/><path d="M47.035 56.342a3.482 3.482 0 0 1 0 4.917c-7.911 7.911-7.911 20.746 0 28.657l2.342 2.342a3.479 3.479 0 0 1 .649 4.023l-4.563 9.127a8.393 8.393 0 0 0 3.754 11.261 8.393 8.393 0 0 0 11.261-3.754l4.566-9.132a20.269 20.269 0 0 0-3.797-23.395l-2.342-2.342a3.482 3.482 0 0 1 0-4.917c7.911-7.911 7.911-20.746 0-28.657l-2.342-2.342a3.479 3.479 0 0 1-.649-4.023l4.563-9.127a8.393 8.393 0 0 0-3.754-11.261 8.393 8.393 0 0 0-11.261 3.754l-4.566 9.132A20.269 20.269 0 0 0 44.693 54l2.342 2.342zM386.135 33.62a8.393 8.393 0 1 0 0 16.786c26.649 0 42.47 10.636 50.767 28.686a8.394 8.394 0 0 0 15.253-7.011C441.177 48.2 419.49 33.62 386.135 33.62z"/></svg>
