<svg xmlns="http://www.w3.org/2000/svg" xml:space="preserve" width="800" height="800" viewBox="0 0 503.607 503.607"><path d="m305.754 80.857 41.382 34.69a8.393 8.393 0 0 0 10.785-.001l41.354-34.673c9.392-7.922 16.077-18.2 18.952-29.552 1.376-5.421 1.678-9.964 1.303-13.492a18.762 18.762 0 0 0-.117-.903C417.282 16.136 401.12 0 380.353 0c-10.986 0-21.087 3.915-28.301 10.783C345.147 3.873 335.581 0 324.696 0c-20.767 0-36.929 16.136-39.06 36.927-.042.267-.081.568-.117.903-.375 3.528-.073 8.069 1.304 13.49 2.872 11.351 9.556 21.63 18.931 29.537zm-3.542-41.253c.006-.055.103-.761.103-.761 1.207-12.671 10.545-22.057 22.381-22.057 9.229 0 16.161 4.317 19.574 11.855 2.977 6.576 12.316 6.576 15.293 0 3.268-7.218 11.202-11.855 20.791-11.855 11.836 0 21.174 9.386 22.381 22.057l.137.91c.134 1.428-.035 3.974-.916 7.443-1.987 7.849-6.718 15.123-13.484 20.829l-35.943 30.136-35.97-30.153c-6.747-5.691-11.477-12.964-13.463-20.815-.883-3.471-1.052-6.013-.884-7.589zM480.789 184.77l-.133-.01a25.266 25.266 0 0 0-2.229-.104h-199.63c31.176-41.67 11.613-100.721-39.479-100.721-18.81 0-35.503 9.794-46.288 24.708-10.781-14.914-27.476-24.708-46.292-24.708-50.823 0-70.626 60.257-39.649 100.721H25.18c-.752 0-1.494.039-2.229.104l-.133.01C10.022 185.961 0 196.725 0 209.836v268.59c0 13.11 10.021 23.874 22.817 25.066l.134.01a25.54 25.54 0 0 0 2.224.104H478.427c.754 0 1.499-.039 2.236-.104.041-.004.082-.005.122-.009 12.798-1.19 22.822-11.955 22.822-25.067v-268.59c0-13.111-10.022-23.875-22.818-25.066zM309.947 344.131l176.873-134.18v268.361L309.947 344.131zm-163.209-243.41c16.887 0 31.828 11.733 38.504 28.315 2.822 7.01 12.746 7.012 15.571.003 6.685-16.585 21.626-28.318 38.505-28.318 37.645 0 51.217 47.117 21.792 78.988-1.565 1.696-3.981 4.223-7.126 7.461-.01.01-.022.019-.032.03-8.62 8.87-22.477 22.842-39.387 39.759a13240.247 13240.247 0 0 1-21.53 21.486c-9.468-9.374-29.256-29.279-45.641-45.869a6624.39 6624.39 0 0 1-15.162-15.404l-.034-.032a1573.383 1573.383 0 0 1-7.381-7.57c-29.288-30.322-15.496-78.849 21.921-78.849zm-24.031 100.722c4.81 4.9 10.517 10.689 16.527 16.767 22.268 22.534 46.172 46.486 48.505 48.433a8.375 8.375 0 0 0 5.735 1.941 8.375 8.375 0 0 0 5.556-2.426 11653.409 11653.409 0 0 0 34.12-34.047c12.673-12.702 23.028-23.153 30.365-30.666h206.746L290.987 337.444h-.001l-39.184 29.725-13.215-10.025-25.963-19.699-.022-.014L33.346 201.443h89.361zM16.787 478.309V209.951l176.874 134.181L16.787 478.309zm16.557 8.511 174.205-132.152 20.891 15.849 18.287 13.875a8.382 8.382 0 0 0 5.074 1.707 8.381 8.381 0 0 0 5.074-1.706l39.183-29.725 174.2 132.152H33.344z"/></svg>
